<svg xmlns="http://www.w3.org/2000/svg" width="195" height="42" viewBox="0 0 195 42" fill="none"><script xmlns="" id="eppiocemhmnlbhjplcgkofciiegomcon"/><script xmlns=""/><script xmlns=""/>
<rect y="7.02283" width="28.4931" height="28" fill="#AFDCD0"/>
<rect y="16.274" width="9.5274" height="9.3625" fill="#77D3B9"/>
<rect x="9.52734" y="16.274" width="9.5274" height="9.3625" fill="#0AC18E"/>
<rect x="18.9688" y="7" width="9.5274" height="9.3625" fill="#0AC18E"/>
<rect y="25.6371" width="9.5274" height="9.3625" fill="#0AC18E"/>
<rect x="9.52734" y="25.6371" width="9.5274" height="9.3625" fill="#77D3B9"/>
<rect x="18.9688" y="16.274" width="9.5274" height="9.3625" fill="#77D3B9"/>
<rect x="9.52734" y="7" width="9.5274" height="9.3625" fill="#77D3B9"/>
<path d="M42.6218 30.625H33.3281V10.4727H43.2896C45.8032 10.5091 47.584 11.2246 48.6321 12.6191C49.2628 13.4759 49.5781 14.5013 49.5781 15.6953C49.5781 16.9258 49.2628 17.9147 48.6321 18.6621C48.2796 19.0814 47.7602 19.4642 47.0738 19.8105C48.1219 20.1842 48.9103 20.7767 49.439 21.5879C49.977 22.3991 50.2459 23.3835 50.2459 24.541C50.2459 25.735 49.9399 26.806 49.3277 27.7539C48.9381 28.3828 48.4512 28.9115 47.8669 29.3398C47.2083 29.832 46.4292 30.1693 45.5295 30.3516C44.6391 30.5339 43.6699 30.625 42.6218 30.625ZM42.5244 21.752H37.4184V27.125H42.4548C43.3545 27.125 44.0548 27.0065 44.5556 26.7695C45.4646 26.332 45.9191 25.4935 45.9191 24.2539C45.9191 23.2057 45.4785 22.4857 44.5974 22.0938C44.1058 21.875 43.4148 21.7611 42.5244 21.752ZM44.653 17.9102C45.2095 17.582 45.4878 16.9941 45.4878 16.1465C45.4878 15.2077 45.1168 14.5879 44.3748 14.2871C43.7348 14.0775 42.9186 13.9727 41.9262 13.9727H37.4184V18.416H42.4548C43.3545 18.416 44.0873 18.2474 44.653 17.9102Z" fill="white"/>
<path d="M57.6057 15.7227V30.625H53.585V15.7227H57.6057ZM57.6057 10.3496V13.9453H53.585V10.3496H57.6057Z" fill="white"/>
<path d="M68.402 27.8496V30.7617L66.5238 30.8301C64.6502 30.8939 63.3702 30.5749 62.6839 29.873C62.2387 29.4264 62.0161 28.7383 62.0161 27.8086V18.6348H59.9013V15.8594H62.0161V11.7031H65.9394V15.8594H68.402V18.6348H65.9394V26.5098C65.9394 27.1204 66.0183 27.5033 66.1759 27.6582C66.3336 27.804 66.8159 27.877 67.6229 27.877C67.7434 27.877 67.8686 27.877 67.9985 27.877C68.1376 27.8678 68.2721 27.8587 68.402 27.8496Z" fill="white"/>
<path d="M84.0676 21.0684H80.0051C79.9309 20.5124 79.7408 20.0111 79.4347 19.5645C78.9895 18.9629 78.2985 18.6621 77.3617 18.6621C76.0261 18.6621 75.1125 19.3138 74.6209 20.6172C74.3612 21.3099 74.2314 22.2305 74.2314 23.3789C74.2314 24.4727 74.3612 25.3522 74.6209 26.0176C75.094 27.2572 75.9844 27.877 77.2922 27.877C78.2197 27.877 78.8782 27.6309 79.2678 27.1387C79.6573 26.6465 79.8938 26.0085 79.9773 25.2246H84.0259C83.9331 26.4095 83.4972 27.5306 82.7181 28.5879C81.4752 30.2923 79.6341 31.1445 77.1948 31.1445C74.7554 31.1445 72.9607 30.4336 71.8106 29.0117C70.6605 27.5898 70.0854 25.7441 70.0854 23.4746C70.0854 20.9134 70.7207 18.9219 71.9914 17.5C73.2621 16.0781 75.0151 15.3672 77.2504 15.3672C79.1518 15.3672 80.7054 15.7865 81.9112 16.625C83.1262 17.4635 83.845 18.9447 84.0676 21.0684Z" fill="white"/>
<path d="M99.455 17.6094C100.735 19.1862 101.375 21.0501 101.375 23.2012C101.375 25.3887 100.735 27.2617 99.455 28.8203C98.1751 30.3698 96.2319 31.1445 93.6256 31.1445C91.0193 31.1445 89.0762 30.3698 87.7962 28.8203C86.5163 27.2617 85.8763 25.3887 85.8763 23.2012C85.8763 21.0501 86.5163 19.1862 87.7962 17.6094C89.0762 16.0326 91.0193 15.2441 93.6256 15.2441C96.2319 15.2441 98.1751 16.0326 99.455 17.6094ZM93.6117 18.5391C92.4523 18.5391 91.5573 18.9447 90.9266 19.7559C90.3051 20.5579 89.9944 21.7064 89.9944 23.2012C89.9944 24.696 90.3051 25.849 90.9266 26.6602C91.5573 27.4714 92.4523 27.877 93.6117 27.877C94.7711 27.877 95.6615 27.4714 96.283 26.6602C96.9044 25.849 97.2151 24.696 97.2151 23.2012C97.2151 21.7064 96.9044 20.5579 96.283 19.7559C95.6615 18.9447 94.7711 18.5391 93.6117 18.5391Z" fill="white"/>
<path d="M108.304 15.7227V30.625H104.283V15.7227H108.304ZM108.304 10.3496V13.9453H104.283V10.3496H108.304Z" fill="white"/>
<path d="M119.295 18.6074C117.95 18.6074 117.027 19.168 116.526 20.2891C116.266 20.8815 116.136 21.638 116.136 22.5586V30.625H112.185V15.75H116.011V17.9238C116.521 17.1582 117.004 16.6068 117.458 16.2695C118.274 15.668 119.308 15.3672 120.561 15.3672C122.128 15.3672 123.408 15.7728 124.4 16.584C125.402 17.3861 125.903 18.7214 125.903 20.5898V30.625H121.841V21.5605C121.841 20.7767 121.734 20.1751 121.521 19.7559C121.131 18.9902 120.389 18.6074 119.295 18.6074Z" fill="white"/>
<path d="M129.506 26.5508H133.722V30.625H129.506V26.5508Z" fill="white"/>
<path d="M150.626 21.0684H146.563C146.489 20.5124 146.299 20.0111 145.993 19.5645C145.548 18.9629 144.857 18.6621 143.92 18.6621C142.584 18.6621 141.671 19.3138 141.179 20.6172C140.919 21.3099 140.79 22.2305 140.79 23.3789C140.79 24.4727 140.919 25.3522 141.179 26.0176C141.652 27.2572 142.543 27.877 143.85 27.877C144.778 27.877 145.436 27.6309 145.826 27.1387C146.216 26.6465 146.452 26.0085 146.536 25.2246H150.584C150.491 26.4095 150.055 27.5306 149.276 28.5879C148.033 30.2923 146.192 31.1445 143.753 31.1445C141.314 31.1445 139.519 30.4336 138.369 29.0117C137.219 27.5898 136.644 25.7441 136.644 23.4746C136.644 20.9134 137.279 18.9219 138.55 17.5C139.82 16.0781 141.573 15.3672 143.809 15.3672C145.71 15.3672 147.264 15.7865 148.469 16.625C149.684 17.4635 150.403 18.9447 150.626 21.0684Z" fill="white"/>
<path d="M166.013 17.6094C167.293 19.1862 167.933 21.0501 167.933 23.2012C167.933 25.3887 167.293 27.2617 166.013 28.8203C164.733 30.3698 162.79 31.1445 160.184 31.1445C157.578 31.1445 155.634 30.3698 154.354 28.8203C153.074 27.2617 152.434 25.3887 152.434 23.2012C152.434 21.0501 153.074 19.1862 154.354 17.6094C155.634 16.0326 157.578 15.2441 160.184 15.2441C162.79 15.2441 164.733 16.0326 166.013 17.6094ZM160.17 18.5391C159.011 18.5391 158.116 18.9447 157.485 19.7559C156.863 20.5579 156.553 21.7064 156.553 23.2012C156.553 24.696 156.863 25.849 157.485 26.6602C158.116 27.4714 159.011 27.877 160.17 27.877C161.329 27.877 162.22 27.4714 162.841 26.6602C163.463 25.849 163.773 24.696 163.773 23.2012C163.773 21.7064 163.463 20.5579 162.841 19.7559C162.22 18.9447 161.329 18.5391 160.17 18.5391Z" fill="white"/>
<path d="M179.3 19.8242C178.966 19.1042 178.312 18.7441 177.338 18.7441C176.207 18.7441 175.446 19.1042 175.057 19.8242C174.843 20.2344 174.737 20.8451 174.737 21.6562V30.625H170.716V15.75H174.57V17.9238C175.061 17.1491 175.525 16.5977 175.961 16.2695C176.731 15.6862 177.728 15.3945 178.952 15.3945C180.111 15.3945 181.048 15.6452 181.762 16.1465C182.337 16.6113 182.773 17.2083 183.07 17.9375C183.59 17.0625 184.234 16.4199 185.004 16.0098C185.82 15.5996 186.729 15.3945 187.731 15.3945C188.399 15.3945 189.057 15.5221 189.707 15.7773C190.356 16.0326 190.945 16.4792 191.473 17.1172C191.9 17.6367 192.188 18.2747 192.336 19.0312C192.429 19.5326 192.475 20.2663 192.475 21.2324L192.447 30.625H188.385V21.1367C188.385 20.5716 188.292 20.1068 188.107 19.7422C187.754 19.0495 187.105 18.7031 186.159 18.7031C185.064 18.7031 184.308 19.1497 183.891 20.043C183.678 20.5169 183.571 21.0866 183.571 21.752V30.625H179.578V21.752C179.578 20.8678 179.485 20.2253 179.3 19.8242Z" fill="white"/>
<script xmlns="" id="bw-fido2-page-script"/></svg>
