<svg xmlns="http://www.w3.org/2000/svg" width="125" height="42" viewBox="0 0 125 42" fill="none"><script xmlns="" id="eppiocemhmnlbhjplcgkofciiegomcon"/><script xmlns=""/><script xmlns=""/>
<path d="M10.6761 6C6.42708 6 2.98844 9.33056 2.98844 13.446V16.2367C1.49636 16.4983 0 16.8472 0 17.2998V31.8638C0 31.8638 0 32.2666 0.467346 32.4576C2.16094 33.1221 8.82383 35.4061 10.3545 35.9294C10.5517 36 10.6075 36 10.6589 36C10.7318 36 10.7661 36 10.9633 35.9294C12.494 35.4061 19.174 33.1221 20.8676 32.4576C21.3007 32.2832 21.3178 31.8804 21.3178 31.8804V17.2998C21.3178 16.8472 19.8429 16.4817 18.3465 16.2367V13.446C18.368 9.33056 14.9079 6 10.6761 6ZM10.6761 9.55897C13.18 9.55897 14.6935 11.0249 14.6935 13.4502V15.8754C11.8852 15.6844 9.48841 15.6844 6.66289 15.8754V13.4502C6.66289 11.0208 8.17641 9.55897 10.6761 9.55897ZM10.6589 19.4468C14.1533 19.4468 17.086 19.7085 17.086 20.1777V29.2641C17.086 29.4053 17.0688 29.4219 16.9402 29.4718C16.8159 29.5257 10.9805 31.5648 10.9805 31.5648C10.9805 31.5648 10.7447 31.6354 10.6761 31.6354C10.6032 31.6354 10.3716 31.5482 10.3716 31.5482C10.3716 31.5482 4.53626 29.5091 4.41192 29.4551C4.28758 29.4012 4.26614 29.3846 4.26614 29.2475V20.1611C4.23184 19.6919 7.16454 19.4468 10.6589 19.4468Z" fill="white"/>
<path d="M33.4288 31.9605V20.461H29.0859V16.3373H42.6265V20.461H38.3263V31.9605H33.4288Z" fill="white"/>
<path d="M53.5982 31.9605L51.3699 27.0479H49.5967V31.9605H44.6992V16.3373H53.3185C57.1018 16.3373 59.131 18.7638 59.131 21.6903C59.131 24.3874 57.5191 25.814 56.2247 26.4286L59.15 31.9559H53.5982V31.9605ZM54.1766 21.6903C54.1766 20.8417 53.3991 20.4747 52.5836 20.4747H49.5967V22.9425H52.5836C53.3991 22.9242 54.1766 22.5572 54.1766 21.6903Z" fill="white"/>
<path d="M61.6992 31.9605V16.3373H73.9455V20.461H66.5778V22.0022H73.7653V26.1259H66.5778V27.8414H73.9455V31.9605H61.6992Z" fill="white"/>
<path d="M76.4922 31.9785V28.2218L82.646 20.4789H76.4922V16.3552H89.0938V20.0753L82.921 27.8594H89.274V31.9831L76.4922 31.9785Z" fill="white"/>
<path d="M90.4688 24.1763C90.4688 19.3783 94.3138 16.0848 99.3109 16.0848C104.289 16.0848 108.153 19.3599 108.153 24.1763C108.153 28.9743 104.308 32.2494 99.3109 32.2494C94.3138 32.2494 90.4688 28.9743 90.4688 24.1763ZM103.175 24.1763C103.175 21.9975 101.644 20.2636 99.292 20.2636C96.9404 20.2636 95.409 21.9975 95.409 24.1763C95.409 26.3551 96.9404 28.089 99.292 28.089C101.663 28.089 103.175 26.3551 103.175 24.1763Z" fill="white"/>
<path d="M119.102 31.9785L116.874 27.0659H115.101V31.9785H110.203V16.3552H118.823C122.606 16.3552 124.635 18.7817 124.635 21.7083C124.635 24.4054 123.023 25.832 121.729 26.4466L124.654 31.974H119.102V31.9785ZM119.7 21.6899C119.7 20.8413 118.922 20.4743 118.107 20.4743H115.12V22.9422H118.107C118.927 22.9238 119.7 22.5568 119.7 21.6899Z" fill="white"/>
<script xmlns="" id="bw-fido2-page-script"/></svg>
